<svg xmlns="http://www.w3.org/2000/svg" xmlns:xlink="http://www.w3.org/1999/xlink" viewBox="0 0 76.93 76.93"><defs><style>.cls-1,.cls-8{fill:none;}.cls-2{fill:#2f96f4;}.cls-3{fill:#0b1236;}.cls-4{opacity:0.2;}.cls-5{clip-path:url(#clip-path);}.cls-6{clip-path:url(#clip-path-2);}.cls-7{fill:#fff;}.cls-8{stroke:#0b1236;stroke-linecap:round;stroke-linejoin:round;stroke-width:3.63px;}</style><clipPath id="clip-path"><rect class="cls-1" x="34.49" y="3.39" width="39.05" height="70.15"/></clipPath><clipPath id="clip-path-2"><rect class="cls-1" x="3.39" y="3.39" width="39.05" height="70.15"/></clipPath></defs><g id="Layer_2" data-name="Layer 2"><g id="Layer_1-2" data-name="Layer 1"><path class="cls-2" d="M38.47,75.24A36.78,36.78,0,1,1,75.24,38.47,36.81,36.81,0,0,1,38.47,75.24"/><path class="cls-3" d="M38.47,3.39A35.08,35.08,0,1,1,3.39,38.47,35.08,35.08,0,0,1,38.47,3.39m0-3.39A38.47,38.47,0,1,0,76.93,38.47,38.52,38.52,0,0,0,38.47,0"/><g class="cls-4"><g class="cls-5"><path class="cls-3" d="M38.47,3.39a34.87,34.87,0,0,0-4,.23,35.07,35.07,0,0,1,0,69.69,35.07,35.07,0,1,0,4-69.92"/></g></g><g class="cls-4"><g class="cls-6"><path class="cls-7" d="M38.46,3.39a34.87,34.87,0,0,1,4,.23,35.07,35.07,0,0,0,0,69.69,35.07,35.07,0,1,1-4-69.92"/></g></g><polyline class="cls-8" points="52.44 47.32 61.72 37.9 52.44 28.91"/><polyline class="cls-8" points="24.5 47.32 15.21 37.9 24.5 28.91"/><line class="cls-8" x1="45.54" y1="24.51" x2="35.61" y2="52.42"/><path class="cls-3" d="M18.05,15.44a1.82,1.82,0,1,0,1.66-2,1.81,1.81,0,0,0-1.66,2"/></g></g></svg>