<svg xmlns="http://www.w3.org/2000/svg" xmlns:xlink="http://www.w3.org/1999/xlink" viewBox="0 0 77.92 76.57"><defs><style>.cls-1{fill:none;}.cls-2{fill:#2f96f4;}.cls-3,.cls-8{fill:#0b1236;}.cls-4{opacity:0.2;}.cls-5{clip-path:url(#clip-path);}.cls-6{fill:#fff;}.cls-7{clip-path:url(#clip-path-2);}.cls-8{font-size:23.86px;font-family:ProximaSoft-Bold, Proxima Soft;font-weight:700;}</style><clipPath id="clip-path"><rect class="cls-1" x="3" y="3" width="39.51" height="62.54"/></clipPath><clipPath id="clip-path-2"><rect class="cls-1" x="24" y="4.34" width="50.93" height="69.23"/></clipPath></defs><g id="Layer_2" data-name="Layer 2"><g id="Layer_1-2" data-name="Layer 1"><path class="cls-2" d="M39.64,75.07a36.39,36.39,0,0,1-22.52-7.7L2.94,66.8A1.51,1.51,0,0,1,1.53,65L4.76,50A36.78,36.78,0,1,1,39.64,75.07"/><path class="cls-3" d="M39.64,3a35.29,35.29,0,1,1-22,62.89L3,65.3,6.31,49.89A35.29,35.29,0,0,1,39.64,3m0-3A38.3,38.3,0,0,0,3.2,50.06L.07,64.67A3,3,0,0,0,2.88,68.3l13.7.55a37.93,37.93,0,0,0,23.06,7.72A38.29,38.29,0,0,0,39.64,0"/><g class="cls-4"><g class="cls-5"><path class="cls-6" d="M10.09,38.29a35.13,35.13,0,0,0,2,11.6L8.74,65.3H9l-.09.23L3,65.3,6.31,49.89A35.29,35.29,0,0,1,39.64,3c1,0,1.92,0,2.86.13A35.28,35.28,0,0,0,10.09,38.29"/></g></g><g class="cls-4"><g class="cls-7"><path class="cls-3" d="M33.61,71.25A35.29,35.29,0,0,0,49.27,4.34,35.28,35.28,0,1,1,24,69.91a35,35,0,0,0,9.61,1.34"/></g></g><text class="cls-8" transform="translate(11.43 45.53)">Hello</text></g></g></svg>