<?xml version="1.0" encoding="utf-8"?>
<!-- Generator: Adobe Illustrator 23.0.1, SVG Export Plug-In . SVG Version: 6.00 Build 0)  -->
<svg version="1.1" id="Layer_1" xmlns="http://www.w3.org/2000/svg" xmlns:xlink="http://www.w3.org/1999/xlink" x="0px" y="0px"
	 viewBox="0 0 67 39" style="enable-background:new 0 0 67 39;" xml:space="preserve">
<style type="text/css">
	.st0{fill-rule:evenodd;clip-rule:evenodd;fill:#FFFFFF;}
	.st1{filter:url(#Adobe_OpacityMaskFilter);}
	.st2{mask:url(#mask-2_1_);fill-rule:evenodd;clip-rule:evenodd;fill:#FFFFFF;}
	.st3{filter:url(#Adobe_OpacityMaskFilter_1_);}
	.st4{mask:url(#mask-4_1_);fill-rule:evenodd;clip-rule:evenodd;fill:#FFFFFF;}
	.st5{filter:url(#Adobe_OpacityMaskFilter_2_);}
	.st6{mask:url(#mask-4_2_);fill-rule:evenodd;clip-rule:evenodd;fill:#FFFFFF;}
</style>
<title>Page 1</title>
<desc>Created with Sketch.</desc>
<g id="Welcome">
	<g id="Empire-State" transform="translate(-37.000000, -29.000000)">
		<g id="Page-1" transform="translate(37.000000, 29.000000)">
			<polygon id="Fill-1" class="st0" points="8,36 8,39 10,39 10,38.2 8.9,38.2 8.9,37.9 10,37.9 10,37 8.9,37 8.9,36.8 10,36.8 
				10,36 			"/>
			<polygon id="Fill-2" class="st0" points="15.1,36 14.6,37.5 14.1,36 13,36 13,39 13.8,39 13.8,38.3 14.1,39 14.9,39 15.2,38.2 
				15.2,39 16,39 16,36 			"/>
			<polygon id="Fill-3" class="st0" points="23,39 24,39 24,36 23,36 			"/>
			<g id="Group-28">
				<path id="Fill-4" class="st0" d="M28,36.9c0,0,0,0.1-0.1,0.1c0,0-0.1,0.1-0.2,0.1c0,0,0-0.3,0-0.3v0c0,0,0.1,0,0.1,0
					c0,0,0,0,0.1,0c0,0,0.1,0,0.1,0.1C28,36.9,28,36.9,28,36.9 M28.5,37.6c0,0,0.2-0.2,0.2-0.2c0.1-0.1,0.1-0.2,0.2-0.3
					c0-0.2,0-0.3,0-0.5c0-0.1,0-0.2-0.1-0.3c0-0.1-0.1-0.1-0.2-0.2c-0.3-0.2-0.7-0.1-1-0.1h-0.7v2.6h0.8v-0.8l0.6,0.8h0.9
					C29.2,38.7,28.5,37.6,28.5,37.6"/>
				<g id="Group-8" transform="translate(38.640809, 36.029329)">
					<g id="Clip-7">
					</g>
					<defs>
						<filter id="Adobe_OpacityMaskFilter" filterUnits="userSpaceOnUse" x="0.1" y="0" width="1.9" height="2.7">
							<feColorMatrix  type="matrix" values="1 0 0 0 0  0 1 0 0 0  0 0 1 0 0  0 0 0 1 0"/>
						</filter>
					</defs>
					<mask maskUnits="userSpaceOnUse" x="0.1" y="0" width="1.9" height="2.7" id="mask-2_1_">
						<g class="st1">
							<polygon id="path-1_1_" class="st0" points="0.1,0 1.9,0 1.9,2.7 0.1,2.7 							"/>
						</g>
					</mask>
					<path id="Fill-6" class="st2" d="M1.9,0.2c0,0-0.3-0.1-0.4-0.1C1.2,0,0.6,0,0.3,0.2C0.1,0.4,0.1,0.7,0.1,1c0,0,0,0.1,0,0.1
						c0,0,0,0.1,0.1,0.1c0.2,0.2,0.4,0.4,0.7,0.5c0.1,0,0.4,0.2,0.4,0.3c0,0,0,0,0,0C1,2.1,0.8,2,0.7,2C0.5,1.9,0.3,1.8,0.1,1.7
						c0,0.3,0,0.6,0,0.8c0,0,0.1,0.1,0.2,0.1c0.1,0,0.2,0.1,0.3,0.1c0.4,0,1,0.1,1.3-0.4c0-0.1,0.1-0.1,0.1-0.2
						c0-0.2,0.1-0.4-0.1-0.5C1.7,1.4,1.5,1.3,1.3,1.2C1.2,1.1,1,1,0.9,0.9C0.9,0.8,0.9,0.7,1,0.7c0.1,0,0.3,0,0.4,0.1
						c0.1,0,0.2,0.1,0.3,0.1C1.7,0.9,1.9,0.2,1.9,0.2"/>
				</g>
				<polygon id="Fill-9" class="st0" points="43.1,36.1 43.1,36.8 43.8,36.8 43.8,38.7 44.5,38.7 44.5,36.8 45.2,36.8 45.2,36.1 
									"/>
				<polygon id="Fill-11" class="st0" points="31.8,36.1 31.8,38.7 33.4,38.7 33.4,38 32.6,38 32.6,37.7 33.4,37.7 33.4,37 32.6,37 
					32.6,36.8 33.4,36.8 33.4,36.1 				"/>
				<polygon id="Fill-13" class="st0" points="52.3,36.1 52.3,36.8 53,36.8 53,38.7 53.7,38.7 53.7,36.8 54.4,36.8 54.4,36.1 				
					"/>
				<polygon id="Fill-15" class="st0" points="57.1,36.1 57.1,38.7 58.7,38.7 58.7,38 57.8,38 57.8,37.7 58.7,37.7 58.7,37 57.8,37 
					57.8,36.8 58.7,36.8 58.7,36.1 				"/>
				<path id="Fill-17" class="st0" d="M19.4,37c0,0,0,0.1-0.1,0.1c0,0-0.1,0.1-0.2,0.1c0,0,0-0.3,0-0.3v0c0,0,0.1,0,0.1,0
					c0,0,0,0,0.1,0c0,0,0.1,0,0.1,0.1C19.4,36.9,19.4,36.9,19.4,37 M19.9,36.3c-0.3-0.2-0.7-0.2-1-0.2h-0.7v2.6h0.8v-0.8
					c0.2,0,0.4,0,0.5,0c0.2-0.1,0.4-0.3,0.5-0.5c0-0.1,0-0.2,0-0.3C20.2,36.7,20.1,36.4,19.9,36.3"/>
				<path id="Fill-19" class="st0" d="M48.6,37.5l0.1-0.3l0.1,0.3H48.6z M49.1,36.1h-0.8l-0.9,2.6h0.9l0.1-0.5h0.6l0.1,0.5h0.9
					L49.1,36.1z"/>
				<polygon id="Fill-21" class="st0" points="5.6,16 5.6,26.9 32.1,26.9 32.1,32.1 0,32.1 0,10.9 32.1,10.9 32.1,16 				"/>
				<polygon id="Fill-23" class="st0" points="34.9,32.1 34.9,26.9 61.4,26.9 61.4,16.1 34.9,16.1 34.9,10.9 67,10.9 67,32.1 				
					"/>
				<g id="Clip-26">
				</g>
				<defs>
					<filter id="Adobe_OpacityMaskFilter_1_" filterUnits="userSpaceOnUse" x="34.9" y="0" width="32.1" height="5.1">
						<feColorMatrix  type="matrix" values="1 0 0 0 0  0 1 0 0 0  0 0 1 0 0  0 0 0 1 0"/>
					</filter>
				</defs>
				<mask maskUnits="userSpaceOnUse" x="34.9" y="0" width="32.1" height="5.1" id="mask-4_1_">
					<g class="st3">
						<polygon id="path-3_1_" class="st0" points="0,38.7 67,38.7 67,0 0,0 						"/>
					</g>
				</mask>
				<polygon id="Fill-25" class="st4" points="34.9,5.2 67,5.2 67,0 34.9,0 				"/>
				<defs>
					<filter id="Adobe_OpacityMaskFilter_2_" filterUnits="userSpaceOnUse" x="0" y="0" width="32" height="5.1">
						<feColorMatrix  type="matrix" values="1 0 0 0 0  0 1 0 0 0  0 0 1 0 0  0 0 0 1 0"/>
					</filter>
				</defs>
				<mask maskUnits="userSpaceOnUse" x="0" y="0" width="32" height="5.1" id="mask-4_2_">
					<g class="st5">
						<polygon id="path-3_2_" class="st0" points="0,38.7 67,38.7 67,0 0,0 						"/>
					</g>
				</mask>
				<polygon id="Fill-27" class="st6" points="0,5.2 32,5.2 32,0 0,0 				"/>
			</g>
		</g>
	</g>
</g>
</svg>
