<?xml version="1.0" encoding="UTF-8"?>
<svg width="67px" height="39px" viewBox="0 0 67 39" version="1.1" xmlns="http://www.w3.org/2000/svg" xmlns:xlink="http://www.w3.org/1999/xlink">
    <!-- Generator: Sketch 52.5 (67469) - http://www.bohemiancoding.com/sketch -->
    <title>Page 1</title>
    <desc>Created with Sketch.</desc>
    <defs>
        <polygon id="path-1" points="0.0592507817 0.035362247 1.92934443 0.035362247 1.92934443 2.71067055 0.0592507817 2.71067055"></polygon>
        <polygon id="path-3" points="0 38.74 66.9751433 38.74 66.9751433 0.0371587755 0 0.0371587755"></polygon>
    </defs>
    <g id="Welcome" stroke="none" stroke-width="1" fill="none" fill-rule="evenodd">
        <g id="Empire-State" transform="translate(-37.000000, -29.000000)">
            <g id="Page-1" transform="translate(37.000000, 29.000000)">
                <polygon id="Fill-1" fill="#020303" points="8 36 8 39 10 39 10 38.2297826 8.93426337 38.2297826 8.93426337 37.8648261 10 37.8648261 10 37.0270435 8.93426337 37.0270435 8.93426337 36.7837826 10 36.7837826 10 36"></polygon>
                <polygon id="Fill-2" fill="#020303" points="15.0636066 36 14.5860656 37.5 14.1082787 36 13 36 13 39 13.8215574 39 13.8215574 38.2644783 14.1273361 39 14.929959 39 15.197377 38.2035652 15.197377 39 16 39 16 36"></polygon>
                <polygon id="Fill-3" fill="#020303" points="23 39 24 39 24 36 23 36"></polygon>
                <g id="Group-28">
                    <path d="M28.0020907,36.9446212 C27.9973454,36.9894603 27.9669524,37.0275226 27.933283,37.0574529 C27.8844735,37.1007107 27.8172476,37.1362882 27.7505865,37.1170877 C27.7255039,37.1099721 27.746858,36.8249 27.7477619,36.7858211 L27.7477619,36.7843528 C27.7477619,36.7806257 27.8023336,36.7624416 27.806853,36.7614251 C27.8301278,36.7561167 27.8548715,36.7580368 27.8773555,36.765717 C27.9128327,36.7778021 27.9427737,36.8034405 27.9652577,36.8335967 C27.9893234,36.8654471 28.0062712,36.9048647 28.0020907,36.9446212 M28.461374,37.6417154 C28.4535781,37.6308727 28.6332239,37.4822376 28.6467821,37.4681195 C28.7237248,37.3871382 28.7750199,37.2826644 28.8025882,37.1751412 C28.8420199,37.0219883 28.8368226,36.8608163 28.819084,36.7035975 C28.8071076,36.5967519 28.7882391,36.4871956 28.7310688,36.3961622 C28.6890384,36.329299 28.6287046,36.2759892 28.565885,36.2279877 C28.2821801,36.011247 27.903003,36.084661 27.5643875,36.084661 L26.898455,36.084661 L26.898455,38.682387 L27.7062965,38.682387 L27.7062965,37.9049892 L28.26817,38.682387 L29.2164516,38.682387 C29.2164516,38.682387 28.4658934,37.6479273 28.461374,37.6417154" id="Fill-4" fill="#020303"></path>
                    <g id="Group-8" transform="translate(38.640809, 36.029329)">
                        <mask id="mask-2" fill="white">
                            <use xlink:href="#path-1"></use>
                        </mask>
                        <g id="Clip-7"></g>
                        <path d="M1.8960887,0.213239417 C1.90738718,0.167722741 1.5596199,0.0878709038 1.52154401,0.0808683382 C1.17501956,0.0179581924 0.626704216,-0.0159251895 0.338479933,0.230068163 C0.130474874,0.407730029 0.0848290051,0.707259125 0.0658475548,0.980133294 C0.0637008432,1.01017656 0.061893086,1.04101044 0.0709318718,1.06969837 C0.0809875211,1.10166169 0.103584486,1.12797778 0.126068465,1.15271265 C0.315318044,1.36132134 0.541739629,1.53615959 0.791662057,1.66638472 C0.851995953,1.69789627 1.20609039,1.86753907 1.14440067,1.97302933 C1.13626577,1.98680857 1.12067386,1.99414997 1.10564688,1.9997972 C0.957862732,2.05649539 0.798667116,2.03085697 0.655289376,1.97302933 C0.461859359,1.89532344 0.257469815,1.82258711 0.0724006745,1.73042431 C0.0442674536,1.99844187 0.0700279933,2.28306227 0.0700279933,2.55356461 C0.0700279933,2.56474612 0.213631703,2.63409411 0.234533895,2.64392029 C0.323678921,2.68683924 0.410451265,2.69519714 0.508861046,2.69519714 C0.956619899,2.69497125 1.55193693,2.82384105 1.81880708,2.34224525 C1.85789983,2.27154192 1.87846307,2.19236776 1.89846138,2.11421009 C1.9415086,1.94705207 1.95314604,1.75402974 1.84242091,1.6093477 C1.71858954,1.44727219 1.5119403,1.31230338 1.34381889,1.20037528 C1.20993187,1.11114904 1.04226239,1.04304344 0.948372007,0.905928688 C0.894365261,0.827206297 0.858097133,0.747241516 0.955490051,0.721716035 C1.06327757,0.693592828 1.23286779,0.747241516 1.33545801,0.779430729 C1.45589983,0.817267172 1.57024047,0.875885423 1.68537201,0.927049329 C1.68537201,0.927049329 1.89247319,0.22532449 1.8960887,0.213239417" id="Fill-6" fill="#020303" mask="url(#mask-2)"></path>
                    </g>
                    <polygon id="Fill-9" fill="#020303" points="43.0886604 36.0904777 43.0886604 36.7925413 43.7558358 36.7925413 43.7558358 38.7233294 44.5049251 38.7233294 44.5049251 36.7807951 45.1838509 36.7807951 45.1838509 36.0904777"></polygon>
                    <polygon id="Fill-11" fill="#020303" points="31.8102555 36.0786749 31.8102555 38.6762879 33.4138491 38.6762879 33.4138491 38.00935 32.5594578 38.00935 32.5594578 37.693444 33.4138491 37.693444 33.4138491 36.9680008 32.5594578 36.9680008 32.5594578 36.7573591 33.4138491 36.7573591 33.4138491 36.0786749"></polygon>
                    <polygon id="Fill-13" fill="#020303" points="52.3006745 36.0904777 52.3006745 36.7925413 52.9678499 36.7925413 52.9678499 38.7233294 53.7169393 38.7233294 53.7169393 36.7807951 54.3958651 36.7807951 54.3958651 36.0904777"></polygon>
                    <polygon id="Fill-15" fill="#020303" points="57.0880675 36.1080067 57.0880675 38.7057326 58.691661 38.7057326 58.691661 38.0387947 57.8372698 38.0387947 57.8372698 37.7227757 58.691661 37.7227757 58.691661 36.9973325 57.8372698 36.9973325 57.8372698 36.7866908 58.691661 36.7866908 58.691661 36.1080067"></polygon>
                    <path d="M19.395325,36.9743934 C19.3905796,37.0192324 19.3601867,37.0571818 19.3265172,37.0872251 C19.2777078,37.1303699 19.2104818,37.1660604 19.1438207,37.1468599 C19.1187381,37.1397443 19.1400922,36.8546722 19.1409961,36.8155933 L19.1409961,36.814125 C19.1409961,36.8103979 19.1955678,36.7922138 19.2000872,36.7911973 C19.2233621,36.7858889 19.2481057,36.787809 19.2705897,36.7954892 C19.3060669,36.8075743 19.3360079,36.8332127 19.3584919,36.8633689 C19.3825577,36.8952193 19.3995054,36.9346369 19.395325,36.9743934 M19.9402508,36.255501 C19.6893115,36.0428263 19.2827921,36.0846158 18.9737786,36.0846158 L18.3119135,36.0846158 L18.3119135,38.6823418 L19.0845037,38.6823418 L19.0845037,37.8874376 C19.260986,37.8874376 19.4576926,37.9148832 19.625475,37.8534413 C19.8603705,37.7674905 20.0533486,37.5671267 20.1220433,37.3256512 C20.154244,37.2123677 20.1606841,37.0936629 20.1630568,36.9758617 C20.1680282,36.7157503 20.1387651,36.4236755 19.9402508,36.255501" id="Fill-17" fill="#020303"></path>
                    <path d="M48.6291084,37.4594905 L48.7500022,37.1787102 L48.8710089,37.4594905 L48.6291084,37.4594905 Z M49.1401388,36.090489 L48.3207728,36.090489 L47.3727172,38.7232277 L48.2857476,38.7232277 L48.4145503,38.2551853 L49.0583378,38.2551853 L49.1987779,38.7232277 L50.0649196,38.7232277 L49.1401388,36.090489 Z" id="Fill-19" fill="#020303"></path>
                    <polygon id="Fill-21" fill="#231F20" points="5.61278094 16.0478812 5.61278094 26.8733959 32.0565398 26.8733959 32.0565398 32.0713325 0.00229359191 32.0713325 0.00229359191 10.8611261 32.0506646 10.8611261 32.0506646 16.0478812"></polygon>
                    <polygon id="Fill-23" fill="#231F20" points="34.8730933 32.0784029 34.8730933 26.8993279 61.3524423 26.8993279 61.3524423 16.0568716 34.8779516 16.0568716 34.8779516 10.8589349 66.975132 10.8589349 66.975132 32.0784029"></polygon>
                    <mask id="mask-4" fill="white">
                        <use xlink:href="#path-3"></use>
                    </mask>
                    <g id="Clip-26"></g>
                    <polygon id="Fill-25" fill="#231F20" mask="url(#mask-4)" points="34.8742344 5.17467009 66.9706239 5.17467009 66.9706239 0.0482273469 34.8742344 0.0482273469"></polygon>
                    <polygon id="Fill-27" fill="#231F20" mask="url(#mask-4)" points="0 5.18223738 32.0464503 5.18223738 32.0464503 0.0371587755 0 0.0371587755"></polygon>
                </g>
            </g>
        </g>
    </g>
</svg>